<?xml version="1.0" standalone="no"?>
<!DOCTYPE svg PUBLIC "-//W3C//DTD SVG 20010904//EN"
 "http://www.w3.org/TR/2001/REC-SVG-20010904/DTD/svg10.dtd">
<svg version="1.0" xmlns="http://www.w3.org/2000/svg"
 width="100.000000pt" height="100.000000pt" viewBox="0 0 100.000000 100.000000"
 preserveAspectRatio="xMidYMid meet">
<metadata>
Created by potrace 1.15, written by Peter Selinger 2001-2017
</metadata>
<g transform="translate(0.000000,100.000000) scale(0.100000,-0.100000)"
fill="#000000" stroke="none">
<path d="M340 951 c-124 -40 -211 -106 -255 -194 -20 -40 -25 -66 -25 -122 0
-109 22 -144 199 -312 140 -134 152 -148 192 -232 24 -50 47 -90 50 -91 3 0
12 19 20 42 25 77 85 152 227 286 168 159 192 197 192 307 0 56 -5 82 -25 122
-45 90 -139 160 -264 197 -75 22 -238 21 -311 -3z m318 -123 c6 -6 33 -18 59
-27 66 -22 68 -47 10 -89 -38 -27 -46 -38 -51 -77 -8 -48 -55 -118 -56 -82 0
22 -24 17 -28 -6 -5 -25 47 -100 64 -93 17 7 64 -3 64 -13 0 -3 -25 -6 -56 -6
-52 0 -58 3 -86 35 -26 31 -29 41 -25 88 3 44 1 52 -12 50 -12 -2 -17 -17 -19
-56 -3 -50 -4 -52 -32 -52 -23 0 -27 3 -23 20 8 30 -23 69 -70 91 -49 22 -77
24 -77 6 0 -7 22 -20 50 -30 53 -19 80 -51 61 -70 -6 -6 -26 -16 -43 -21 -54
-18 -33 -31 57 -36 47 -3 86 -9 88 -15 3 -13 -119 -18 -208 -8 -68 8 -70 9
-68 36 1 15 -2 27 -7 27 -17 0 -40 32 -40 55 0 14 13 39 28 57 15 18 40 52 55
76 34 52 75 72 154 73 51 0 65 5 113 39 59 41 79 47 98 28z"/>
</g>
</svg>
