<?xml version="1.0" standalone="no"?>
<!DOCTYPE svg PUBLIC "-//W3C//DTD SVG 20010904//EN"
 "http://www.w3.org/TR/2001/REC-SVG-20010904/DTD/svg10.dtd">
<svg version="1.0" xmlns="http://www.w3.org/2000/svg"
 width="100.000000pt" height="100.000000pt" viewBox="0 0 100.000000 100.000000"
 preserveAspectRatio="xMidYMid meet">
<metadata>
Created by potrace 1.15, written by Peter Selinger 2001-2017
</metadata>
<g transform="translate(0.000000,100.000000) scale(0.100000,-0.100000)"
fill="#000000" stroke="none">
<path d="M355 957 c-22 -8 -43 -14 -48 -15 -4 -1 -30 -13 -58 -27 -71 -36
-134 -98 -165 -161 -23 -47 -26 -63 -23 -131 3 -65 9 -86 34 -127 17 -26 35
-57 41 -67 6 -10 13 -17 16 -14 2 3 15 -6 28 -20 l24 -25 -30 -33 -29 -32 35
32 35 31 40 -38 39 -39 -19 -23 -20 -23 23 19 23 20 55 -55 c38 -37 67 -80 97
-141 39 -80 57 -105 57 -77 0 6 14 41 31 77 23 47 58 93 122 159 49 51 93 91
97 90 8 -2 90 72 107 99 63 96 68 109 72 187 3 68 0 84 -23 131 -15 30 -47 73
-72 96 l-46 42 26 27 c14 15 26 30 26 34 0 4 -12 -7 -28 -24 -25 -28 -30 -30
-55 -18 -23 10 -25 15 -14 28 10 14 10 14 -5 3 -17 -13 -72 -6 -63 8 3 4 -5 8
-18 9 -202 10 -276 9 -312 -2z m-21 -177 c19 -18 20 -18 60 3 57 30 155 29
213 -1 37 -19 42 -20 54 -6 30 36 87 36 111 0 15 -22 7 -60 -16 -85 -25 -26
-25 -27 -9 -73 29 -89 -12 -169 -105 -205 -65 -25 -219 -25 -284 0 -93 36
-134 116 -105 205 16 46 16 47 -9 73 -67 70 20 156 90 89z"/>
<path d="M425 565 c-14 -13 -25 -31 -25 -39 0 -21 41 -64 65 -68 16 -2 21 3
23 31 2 24 -1 37 -12 43 -23 13 -10 28 24 28 34 0 47 -15 24 -28 -11 -6 -14
-19 -12 -43 2 -28 7 -33 23 -31 24 4 65 47 65 68 0 8 -12 26 -26 39 -38 35
-115 35 -149 0z"/>
</g>
</svg>
